<?xml version="1.0" encoding="UTF-8" standalone="no"?>
<svg
   xmlns:dc="http://purl.org/dc/elements/1.1/"
   xmlns:cc="http://creativecommons.org/ns#"
   xmlns:rdf="http://www.w3.org/1999/02/22-rdf-syntax-ns#"
   xmlns:svg="http://www.w3.org/2000/svg"
   xmlns="http://www.w3.org/2000/svg"
   xmlns:sodipodi="http://sodipodi.sourceforge.net/DTD/sodipodi-0.dtd"
   xmlns:inkscape="http://www.inkscape.org/namespaces/inkscape"
   version="1.1"
   x="0px"
   y="0px"
   viewBox="0 0 100 100"
   id="svg6"
   sodipodi:docname="appshell_symbol_white.svg"
   inkscape:version="0.92.1 r15371">
  <metadata
     id="metadata12">
    <rdf:RDF>
      <cc:Work
         rdf:about="">
        <dc:format>image/svg+xml</dc:format>
        <dc:type
           rdf:resource="http://purl.org/dc/dcmitype/StillImage" />
        <dc:title></dc:title>
      </cc:Work>
    </rdf:RDF>
  </metadata>
  <defs
     id="defs10" />
  <sodipodi:namedview
     pagecolor="#ffffff"
     bordercolor="#666666"
     borderopacity="1"
     objecttolerance="10"
     gridtolerance="10"
     guidetolerance="10"
     inkscape:pageopacity="0"
     inkscape:pageshadow="2"
     inkscape:window-width="3422"
     inkscape:window-height="2022"
     id="namedview8"
     showgrid="false"
     inkscape:zoom="9.44"
     inkscape:cx="-24.549811"
     inkscape:cy="49.563576"
     inkscape:window-x="0"
     inkscape:window-y="27"
     inkscape:window-maximized="0"
     inkscape:current-layer="svg6" />
  <g
     transform="translate(0,-952.36218)"
     id="g4"
     style="fill:#fffff4;fill-opacity:1">
    <path
       style="text-indent:0;text-transform:none;direction:ltr;block-progression:tb;baseline-shift:baseline;color:#000000;enable-background:accumulate;fill:#fffff4;fill-opacity:1"
       d="m 18,955.36217 c -8.2487,0 -15,6.75127 -15,15 0,8.24873 6.7513,15 15,15 8.2487,0 15,-6.75127 15,-15 0,-8.24873 -6.7513,-15 -15,-15 z m 32,0 c -8.2487,0 -15,6.75127 -15,15 0,8.24873 6.7513,15 15,15 8.2487,0 15,-6.75127 15,-15 0,-8.24873 -6.7513,-15 -15,-15 z m 32,0 c -8.2487,0 -15,6.75127 -15,15 0,8.24873 6.7513,15 15,15 8.2487,0 15,-6.75127 15,-15 0,-8.24873 -6.7513,-15 -15,-15 z m -64,6 c 5.0061,0 9,3.99393 9,9 0,5.00607 -3.9939,9 -9,9 -5.0061,0 -9,-3.99393 -9,-9 0,-5.00607 3.9939,-9 9,-9 z m 32,0 c 5.0061,0 9,3.99393 9,9 0,5.00607 -3.9939,9 -9,9 -5.0061,0 -9,-3.99393 -9,-9 0,-5.00607 3.9939,-9 9,-9 z m 32,0 c 5.0061,0 9,3.99393 9,9 0,5.00607 -3.9939,9 -9,9 -5.0061,0 -9,-3.99393 -9,-9 0,-5.00607 3.9939,-9 9,-9 z m -64,26 c -8.2487,0 -15,6.75127 -15,15.00003 0,8.2487 6.7513,15 15,15 8.2487,0 15,-6.7513 15,-15 0,-8.24876 -6.7513,-15.00003 -15,-15.00003 z m 32,0 c -8.2487,0 -15,6.75127 -15,15.00003 0,8.2487 6.7513,15 15,15 8.2487,0 15,-6.7513 15,-15 0,-8.24876 -6.7513,-15.00003 -15,-15.00003 z m 32,0 c -8.2487,0 -15,6.75127 -15,15.00003 0,8.2487 6.7513,15 15,15 8.2487,0 15,-6.7513 15,-15 0,-8.24876 -6.7513,-15.00003 -15,-15.00003 z m -64,6 c 5.0061,0 9,3.99393 9,9.00003 0,5.0061 -3.9939,9 -9,9 -5.0061,0 -9,-3.9939 -9,-9 0,-5.0061 3.9939,-9.00003 9,-9.00003 z m 32,0 c 5.0061,0 9,3.99393 9,9.00003 0,5.0061 -3.9939,9 -9,9 -5.0061,0 -9,-3.9939 -9,-9 0,-5.0061 3.9939,-9.00003 9,-9.00003 z m 32,0 c 5.0061,0 9,3.99393 9,9.00003 0,5.0061 -3.9939,9 -9,9 -5.0061,0 -9,-3.9939 -9,-9 0,-5.0061 3.9939,-9.00003 9,-9.00003 z m -64,26.00003 c -8.2487,0 -15,6.7513 -15,15 0,8.2487 6.7513,15 15,15 8.2487,0 15,-6.7513 15,-15 0,-8.2487 -6.7513,-15 -15,-15 z m 32,0 c -8.2487,0 -15,6.7513 -15,15 0,8.2487 6.7513,15 15,15 8.2487,0 15,-6.7513 15,-15 0,-8.2487 -6.7513,-15 -15,-15 z m 32,0 c -8.2487,0 -15,6.7513 -15,15 0,8.2487 6.7513,15 15,15 8.2487,0 15,-6.7513 15,-15 0,-8.2487 -6.7513,-15 -15,-15 z m -64,6 c 5.0061,0 9,3.9939 9,9 0,5.0061 -3.9939,9 -9,9 -5.0061,0 -9,-3.9939 -9,-9 0,-5.0061 3.9939,-9 9,-9 z m 32,0 c 5.0061,0 9,3.9939 9,9 0,5.0061 -3.9939,9 -9,9 -5.0061,0 -9,-3.9939 -9,-9 0,-5.0061 3.9939,-9 9,-9 z m 32,0 c 5.0061,0 9,3.9939 9,9 0,5.0061 -3.9939,9 -9,9 -5.0061,0 -9,-3.9939 -9,-9 0,-5.0061 3.9939,-9 9,-9 z"
       fill="#000000"
       fill-opacity="1"
       stroke="none"
       marker="none"
       visibility="visible"
       display="inline"
       overflow="visible"
       id="path2" />
  </g>
</svg>
